<?xml version="1.0" encoding="utf-8"?>
<!-- Generator: Adobe Illustrator 15.0.2, SVG Export Plug-In . SVG Version: 6.00 Build 0)  -->
<!DOCTYPE svg PUBLIC "-//W3C//DTD SVG 1.1//EN" "http://www.w3.org/Graphics/SVG/1.1/DTD/svg11.dtd">
<svg version="1.1" id="Layer_1" xmlns="http://www.w3.org/2000/svg" xmlns:xlink="http://www.w3.org/1999/xlink" x="0px" y="0px"
	 width="512px" height="512px" viewBox="0 0 512 512" enable-background="new 0 0 512 512" xml:space="preserve">
<path d="M78.77,210.052h78.769V433.23H78.77V210.052z M343.18,202.436c22.18,0.135,50.551,11.026,67.872,28.622
	c17.974,20.083,22.179,42.788,22.179,70.892V433.23h-78.769V311.27c0-22.32-9.052-49.507-38.59-50.41
	c-17.32,0.275-28.487,10.243-36.77,27.038c-2.359,5.513-1.833,11.692-1.833,17.859l-1.577,127.474h-78.77V210.052h78.77
	l1.577,29.141c5.371-8.923,12.858-17.314,22.192-24.007C312.052,206.115,326.77,202.686,343.18,202.436z M118.154,103.058
	c20.218,0.275,40.301,16.147,41.089,40.302c0.526,21.545-18.243,40.308-41.615,40.308h-0.525c-20.083,0-39.775-16.41-40.698-40.308
	C76.802,122.09,94.654,103.596,118.154,103.058z M0,0v512h512V0H0z"/>
</svg>
